# xmcd CD database file
#
# Track frame offsets:
#	150
#	20450
#	41493
#	59318
#	80853
#	96458
#	111470
#	130688
#	149195
#	170228
#	188638
#	204593
#	222973
#	238000
#
# Disc length: 3520 seconds
#
# Revision: 1
# Processed by: cddbd v1.5.2PL0 Copyright (c) Steve Scherf et al.
# Submitted via: CDex 1.70beta2
#
DISCID=db0dbe0e
DTITLE=Θανος Καλλιρης - Καποιο Καλοκαιρι
DYEAR=1994
DGENRE=Pop
TTITLE0=καποιο καλοκαιρι
TTITLE1=ποιος
TTITLE2=το νου σου κυριε οδηγε
TTITLE3=οχι οχι το μωρο μου
TTITLE4=εγω σε αγαπησα
TTITLE5=αλοιμονο
TTITLE6=πες μου γιατι δεν μιλας
TTITLE7=ελα φεγγαρι μου
TTITLE8=κερδισαμε
TTITLE9=δεν θα με αφηνες (αν)
TTITLE10=ουρανιο τοξο
TTITLE11=ελα φεγγαρι μου (ρεμιξ)
TTITLE12=αλοιμονο (ρεμιξ)
TTITLE13=ποιος (ρεμιξ)
EXTD=KLcanislupus© YEAR: 1994
EXTT0=KLcanislupus©
EXTT1=
EXTT2=
EXTT3=
EXTT4=
EXTT5=
EXTT6=
EXTT7=
EXTT8=
EXTT9=
EXTT10=
EXTT11=
EXTT12=
EXTT13=
PLAYORDER=
